<?xml version="1.0" encoding="UTF-8"?>
<!DOCTYPE svg PUBLIC "-//W3C//DTD SVG 1.1//EN" "http://www.w3.org/Graphics/SVG/1.1/DTD/svg11.dtd">
<svg xmlns="http://www.w3.org/2000/svg" version="1.1" width="2164px" height="1824px" style="shape-rendering:geometricPrecision; text-rendering:geometricPrecision; image-rendering:optimizeQuality; fill-rule:evenodd; clip-rule:evenodd" xmlns:xlink="http://www.w3.org/1999/xlink">
<g><path style="opacity:1" fill="#000000" d="M -0.5,-0.5 C 720.833,-0.5 1442.17,-0.5 2163.5,-0.5C 2163.5,607.5 2163.5,1215.5 2163.5,1823.5C 1442.17,1823.5 720.833,1823.5 -0.5,1823.5C -0.5,1215.5 -0.5,607.5 -0.5,-0.5 Z"/></g>
<g><path style="opacity:1" fill="#008101" d="M 509.5,98.5 C 510.552,98.3505 511.552,98.5172 512.5,99C 625.167,207 737.833,315 850.5,423C 853.432,425.614 856.599,427.781 860,429.5C 923.815,411.755 987.648,394.088 1051.5,376.5C 1112.92,393.354 1174.25,410.521 1235.5,428C 1238.44,429.124 1241.44,429.458 1244.5,429C 1359.14,320.031 1473.47,210.698 1587.5,101C 1589.97,98.9782 1592.14,99.1449 1594,101.5C 1639.39,214.837 1650.39,331.504 1627,451.5C 1618.52,498.281 1605.18,543.615 1587,587.5C 1576.43,612.465 1564.93,636.965 1552.5,661C 1557.52,671.549 1562.69,682.049 1568,692.5C 1617.69,784.548 1666.86,876.881 1715.5,969.5C 1637.35,1074.48 1559.68,1179.81 1482.5,1285.5C 1481.5,1286.83 1480.5,1286.83 1479.5,1285.5C 1470.76,1266.35 1461.76,1247.35 1452.5,1228.5C 1432.18,1273.48 1412.68,1318.81 1394,1364.5C 1381.59,1342.67 1368.92,1321 1356,1299.5C 1325.88,1414.98 1296.21,1530.65 1267,1646.5C 1266.1,1647.7 1264.93,1648.53 1263.5,1649C 1209.86,1664.99 1156.2,1680.83 1102.5,1696.5C 1099.68,1696.88 1097.51,1695.88 1096,1693.5C 1081.33,1673.34 1066.49,1653.34 1051.5,1633.5C 1036.1,1653.28 1020.94,1673.28 1006,1693.5C 1004.15,1695.59 1001.81,1696.59 999,1696.5C 944.718,1680.72 890.552,1664.55 836.5,1648C 833.474,1640.08 830.974,1631.91 829,1623.5C 801.944,1515.27 774.277,1407.27 746,1299.5C 733.58,1320.67 721.414,1342 709.5,1363.5C 689.128,1318.09 669.295,1272.42 650,1226.5C 640.455,1247.07 630.955,1267.24 621.5,1287C 543.045,1181.26 464.711,1075.42 386.5,969.5C 438.746,871.341 491.246,773.341 544,675.5C 546.585,670.832 548.752,665.998 550.5,661C 469.723,513.23 445.89,356.73 479,191.5C 485.877,159.371 496.043,128.371 509.5,98.5 Z"/></g>
<g><path style="opacity:1" fill="#000000" d="M 1573.5,171.5 C 1577.73,180.701 1580.89,190.368 1583,200.5C 1591.34,239.129 1593.67,278.129 1590,317.5C 1582.43,405.787 1564.1,491.787 1535,575.5C 1524.92,604.163 1514.42,632.663 1503.5,661C 1556.87,760.897 1610.37,860.73 1664,960.5C 1665.37,962.695 1665.71,965.029 1665,967.5C 1607.2,1046.93 1549.03,1126.1 1490.5,1205C 1489.67,1205.69 1489,1205.52 1488.5,1204.5C 1477.05,1178.92 1465.05,1153.59 1452.5,1128.5C 1452,1127.48 1451.33,1127.31 1450.5,1128C 1429.96,1174.91 1409.3,1221.74 1388.5,1268.5C 1372.42,1242.69 1357.09,1216.36 1342.5,1189.5C 1341.68,1188.61 1340.68,1188.28 1339.5,1188.5C 1304,1329.82 1268.5,1471.15 1233,1612.5C 1232.1,1613.7 1230.93,1614.53 1229.5,1615C 1192.83,1626 1156.17,1637 1119.5,1648C 1117.83,1648.67 1116.17,1648.67 1114.5,1648C 1096.89,1625.56 1079.89,1602.73 1063.5,1579.5C 1079.16,1554.86 1095.32,1530.53 1112,1506.5C 1112.48,1505.55 1112.65,1504.55 1112.5,1503.5C 1071.5,1503.5 1030.5,1503.5 989.5,1503.5C 989.351,1504.55 989.517,1505.55 990,1506.5C 1006.68,1530.53 1022.84,1554.86 1038.5,1579.5C 1022.11,1602.73 1005.11,1625.56 987.5,1648C 983.404,1648.2 979.404,1647.53 975.5,1646C 940.828,1635.5 906.161,1625 871.5,1614.5C 834.077,1472.14 797.577,1329.47 762,1186.5C 745.833,1214.17 729.667,1241.83 713.5,1269.5C 692.763,1221.69 671.763,1174.03 650.5,1126.5C 638.136,1151.9 626.303,1177.56 615,1203.5C 614.577,1204.96 613.744,1205.46 612.5,1205C 554,1125.83 495.5,1046.67 437,967.5C 436.333,965.833 436.333,964.167 437,962.5C 490.833,862.167 544.667,761.833 598.5,661.5C 532.503,527.346 505.336,385.679 517,236.5C 519.402,215.687 522.735,195.021 527,174.5C 528.507,173.465 530.007,173.632 531.5,175C 636.227,276.396 741.561,377.063 847.5,477C 915.266,458.193 983.099,439.36 1051,420.5C 1118.63,438.985 1186.13,457.985 1253.5,477.5C 1360.49,375.845 1467.16,273.845 1573.5,171.5 Z"/></g>
<g><path style="opacity:1" fill="#008101" d="M 602.5,392.5 C 605.938,394.759 609.271,397.259 612.5,400C 656.198,440.035 699.532,480.368 742.5,521C 717.732,543.642 692.232,565.475 666,586.5C 624.573,528.717 603.407,464.05 602.5,392.5 Z"/></g>
<g><path style="opacity:1" fill="#008201" d="M 1497.5,392.5 C 1499.89,392.685 1500.89,394.018 1500.5,396.5C 1497.52,465.611 1476.68,528.611 1438,585.5C 1437.44,586.022 1436.77,586.355 1436,586.5C 1410.34,565.005 1384.84,543.338 1359.5,521.5C 1405.52,478.478 1451.52,435.478 1497.5,392.5 Z"/></g>
<g><path style="opacity:1" fill="#008201" d="M 935.5,1226.5 C 934.833,1227.17 934.167,1227.83 933.5,1228.5C 908.652,1177.14 883.485,1125.8 858,1074.5C 856.612,1073.45 855.112,1073.28 853.5,1074C 834.823,1081.56 815.989,1088.73 797,1095.5C 766.202,1043.57 736.702,990.905 708.5,937.5C 711.223,938.352 713.89,939.519 716.5,941C 771.923,976.794 827.09,1012.96 882,1049.5C 899.542,1108.62 917.375,1167.62 935.5,1226.5 Z"/></g>
<g><path style="opacity:1" fill="#008301" d="M 1392.5,936.5 C 1393.38,936.369 1394.04,936.702 1394.5,937.5C 1365.29,990.081 1335.96,1042.58 1306.5,1095C 1304.09,1095.48 1301.75,1095.15 1299.5,1094C 1281.46,1086.93 1263.46,1079.76 1245.5,1072.5C 1244.91,1072.71 1244.41,1073.04 1244,1073.5C 1218.91,1125.35 1193.57,1177.02 1168,1228.5C 1184.49,1169.02 1201.82,1109.68 1220,1050.5C 1222.54,1047.63 1225.37,1045.13 1228.5,1043C 1283.4,1007.73 1338.07,972.225 1392.5,936.5 Z"/></g>
<g><path style="opacity:1" fill="#03d82a" d="M 935.5,1226.5 C 936.059,1228.68 936.726,1230.85 937.5,1233C 937.167,1233.5 936.833,1234 936.5,1234.5C 934.962,1232.76 933.962,1230.76 933.5,1228.5C 934.167,1227.83 934.833,1227.17 935.5,1226.5 Z"/></g>
</svg>
